<?xml version="1.0" encoding="UTF-8" standalone="no"?>
<!DOCTYPE svg PUBLIC "-//W3C//DTD SVG 1.1//EN"
 "http://www.w3.org/Graphics/SVG/1.1/DTD/svg11.dtd">
<!-- Generated by graphviz version 7.1.0 (0)
 -->
<!-- Title: snakemake_dag Pages: 1 -->
<svg width="314pt" height="188pt"
 viewBox="0.00 0.00 313.50 188.00" xmlns="http://www.w3.org/2000/svg" xmlns:xlink="http://www.w3.org/1999/xlink">
<g id="graph0" class="graph" transform="scale(1 1) rotate(0) translate(4 184)">
<title>snakemake_dag</title>
<polygon fill="white" stroke="none" points="-4,4 -4,-184 309.5,-184 309.5,4 -4,4"/>
<!-- 0 -->
<g id="node1" class="node">
<title>0</title>
<path fill="none" stroke="#d85656" stroke-width="2" d="M161,-36C161,-36 131,-36 131,-36 125,-36 119,-30 119,-24 119,-24 119,-12 119,-12 119,-6 125,0 131,0 131,0 161,0 161,0 167,0 173,-6 173,-12 173,-12 173,-24 173,-24 173,-30 167,-36 161,-36"/>
<text text-anchor="middle" x="146" y="-15.5" font-family="sans" font-size="10.00">all</text>
</g>
<!-- 1 -->
<g id="node2" class="node">
<title>1</title>
<path fill="none" stroke="#59d856" stroke-width="2" d="M195,-108C195,-108 97,-108 97,-108 91,-108 85,-102 85,-96 85,-96 85,-84 85,-84 85,-78 91,-72 97,-72 97,-72 195,-72 195,-72 201,-72 207,-78 207,-84 207,-84 207,-96 207,-96 207,-102 201,-108 195,-108"/>
<text text-anchor="middle" x="146" y="-87.5" font-family="sans" font-size="10.00">deploy_to_github_pages</text>
</g>
<!-- 1&#45;&gt;0 -->
<g id="edge1" class="edge">
<title>1&#45;&gt;0</title>
<path fill="none" stroke="grey" stroke-width="2" d="M146,-71.34C146,-64.75 146,-57.08 146,-49.67"/>
<polygon fill="grey" stroke="grey" stroke-width="2" points="149.5,-49.93 146,-39.93 142.5,-49.93 149.5,-49.93"/>
</g>
<!-- 2 -->
<g id="node3" class="node">
<title>2</title>
<path fill="none" stroke="#56d8a9" stroke-width="2" d="M82,-180C82,-180 12,-180 12,-180 6,-180 0,-174 0,-168 0,-168 0,-156 0,-156 0,-150 6,-144 12,-144 12,-144 82,-144 82,-144 88,-144 94,-150 94,-156 94,-156 94,-168 94,-168 94,-174 88,-180 82,-180"/>
<text text-anchor="middle" x="47" y="-159.5" font-family="sans" font-size="10.00">get_dot_rulegraph</text>
</g>
<!-- 2&#45;&gt;1 -->
<g id="edge2" class="edge">
<title>2&#45;&gt;1</title>
<path fill="none" stroke="grey" stroke-width="2" d="M72.24,-143.15C83.76,-135.01 97.61,-125.22 110.18,-116.33"/>
<polygon fill="grey" stroke="grey" stroke-width="2" points="112.19,-119.19 118.34,-110.56 108.15,-113.48 112.19,-119.19"/>
</g>
<!-- 3 -->
<g id="node4" class="node">
<title>3</title>
<path fill="none" stroke="#afd856" stroke-width="2" d="M168,-180C168,-180 124,-180 124,-180 118,-180 112,-174 112,-168 112,-168 112,-156 112,-156 112,-150 118,-144 124,-144 124,-144 168,-144 168,-144 174,-144 180,-150 180,-156 180,-156 180,-168 180,-168 180,-174 174,-180 168,-180"/>
<text text-anchor="middle" x="146" y="-159.5" font-family="sans" font-size="10.00">project_tree</text>
</g>
<!-- 3&#45;&gt;1 -->
<g id="edge4" class="edge">
<title>3&#45;&gt;1</title>
<path fill="none" stroke="grey" stroke-width="2" d="M146,-143.34C146,-136.75 146,-129.08 146,-121.67"/>
<polygon fill="grey" stroke="grey" stroke-width="2" points="149.5,-121.93 146,-111.93 142.5,-121.93 149.5,-121.93"/>
</g>
<!-- 4 -->
<g id="node5" class="node">
<title>4</title>
<path fill="none" stroke="#d8ac56" stroke-width="2" d="M293.5,-180C293.5,-180 210.5,-180 210.5,-180 204.5,-180 198.5,-174 198.5,-168 198.5,-168 198.5,-156 198.5,-156 198.5,-150 204.5,-144 210.5,-144 210.5,-144 293.5,-144 293.5,-144 299.5,-144 305.5,-150 305.5,-156 305.5,-156 305.5,-168 305.5,-168 305.5,-174 299.5,-180 293.5,-180"/>
<text text-anchor="middle" x="252" y="-159.5" font-family="sans" font-size="10.00">get_files4smk_report</text>
</g>
<!-- 4&#45;&gt;1 -->
<g id="edge3" class="edge">
<title>4&#45;&gt;1</title>
<path fill="none" stroke="grey" stroke-width="2" d="M224.98,-143.15C212.39,-134.84 197.21,-124.82 183.54,-115.79"/>
<polygon fill="grey" stroke="grey" stroke-width="2" points="185.77,-113.07 175.5,-110.48 181.92,-118.91 185.77,-113.07"/>
</g>
</g>
</svg>
